<svg width="199" height="51" viewBox="0 0 199 51" fill="none" xmlns="http://www.w3.org/2000/svg">
<g filter="url(#filter0_d)">
<path d="M53 35H4L28.5 9L53 35ZM17.3075 22.1309L20.6442 25.6702L23.981 22.1309L20.6442 18.5812L17.3075 22.1309ZM20.6442 34.0052L23.981 30.466L20.6442 26.9162L17.3075 30.466L20.6442 34.0052ZM36.4083 34.0052L39.745 30.466L36.4083 26.9162L33.019 30.466L36.4083 34.0052ZM32.4673 14.4031C32.4473 14.4376 32.4207 14.4694 32.3885 14.4974C31.3507 15.6178 30.2997 16.7382 29.2357 17.8482C29.1437 17.9424 29.2357 18.0052 29.2357 18.089L32.3097 21.356L32.4542 21.4921L35.7909 17.9634L32.4673 14.4031ZM12.7885 34.0052L12.9198 33.8691L15.9938 30.6126C16.0428 30.5717 16.0702 30.5173 16.0702 30.4607C16.0702 30.4042 16.0428 30.3498 15.9938 30.3089C15.0611 29.3456 14.1547 28.3613 13.2351 27.3874L12.7885 26.9162L9.45174 30.466L12.7885 34.0052ZM21.2354 17.9529L24.5721 21.4921L24.6772 21.3979L27.8169 18.0681C27.922 17.9529 27.8169 17.89 27.8169 17.8063L24.7429 14.5602L24.6115 14.4241L21.2354 17.9529ZM21.2354 26.3298L24.5721 29.8691L24.7429 29.7016C25.7413 28.6545 26.7528 27.6073 27.7643 26.4869C27.7926 26.4663 27.8152 26.4412 27.8307 26.4133C27.8461 26.3853 27.8541 26.3551 27.8541 26.3246C27.8541 26.2941 27.8461 26.2639 27.8307 26.2359C27.8152 26.208 27.7926 26.1829 27.7643 26.1623C26.8185 25.1675 25.8727 24.1728 24.9399 23.1675L24.5721 22.7906L21.2354 26.3298ZM36.9995 26.3298L40.3362 29.8691L43.6729 26.3298L40.3362 22.7906L36.9995 26.3298ZM32.4673 22.7801V22.8534L29.3013 26.2147C29.1962 26.3089 29.2357 26.3717 29.3013 26.4555L32.244 29.5969C32.3228 29.6911 32.4147 29.7853 32.5198 29.8901L35.8566 26.3508L32.4673 22.7801ZM16.7295 29.8482C16.7453 29.8175 16.7675 29.7892 16.7952 29.7644L19.9611 26.4031C20.0531 26.2984 19.9611 26.2461 19.9611 26.1623L16.8477 22.8953C16.8069 22.8484 16.7583 22.8061 16.7032 22.7696L13.3796 26.2984L16.7295 29.8482ZM36.3558 25.6597L39.6925 22.1204L36.3558 18.5916L33.019 22.1309L36.3558 25.6597ZM28.4737 17.2827L31.8105 13.7435L28.5263 10.2775H28.4606L25.2552 13.712C25.2354 13.7371 25.2249 13.7662 25.2249 13.7958C25.2249 13.8255 25.2354 13.8545 25.2552 13.8796L28.4737 17.2827ZM28.4737 25.6597L31.8105 22.1204L28.5 18.5812L25.1633 22.1309L28.4737 25.6597ZM28.4737 34.0366L31.8105 30.4974L28.4737 26.9476L25.1633 30.466L28.4737 34.0366ZM44.2378 34.0366L47.5745 30.4974L44.2509 26.9791H44.1853L40.9668 30.3613C40.8617 30.4764 40.9668 30.5288 40.9668 30.6021L43.5941 33.4398L44.2378 34.0366ZM5.89169 34.2356H11.882L8.91314 31.0942L5.89169 34.2356ZM45.1705 34.2356H51.1083L48.1394 31.0942L45.1705 34.2356ZM27.5542 34.2356L24.5721 31.0942L21.5901 34.2356H27.5542ZM37.3147 34.2356H43.2525L40.2836 31.0942L37.3147 34.2356ZM35.3968 34.2356L32.4279 31.0942L29.459 34.2356H35.3968ZM19.6327 34.2356L16.6638 31.0942L13.6949 34.2356H19.6327Z" fill="white"/>
<path d="M75.26 33.72H75.4C75.5493 33.72 75.68 33.6733 75.792 33.58C75.904 33.468 75.9973 33.3373 76.072 33.188C76.1653 33.0387 76.2307 32.88 76.268 32.712C76.324 32.544 76.352 32.3853 76.352 32.236V17.256C76.352 17.1253 76.324 16.976 76.268 16.808C76.2307 16.64 76.1653 16.4813 76.072 16.332C75.9973 16.1827 75.904 16.0613 75.792 15.968C75.68 15.856 75.5493 15.8 75.4 15.8H75.26V15.52H79.292V15.8H79.152C79.0027 15.8 78.872 15.856 78.76 15.968C78.648 16.0613 78.5547 16.1827 78.48 16.332C78.4053 16.4813 78.34 16.64 78.284 16.808C78.2467 16.976 78.228 17.1253 78.228 17.256V32.964H84.36C84.7147 32.964 85.0227 32.88 85.284 32.712C85.5453 32.544 85.76 32.3387 85.928 32.096C86.1147 31.8347 86.2453 31.564 86.32 31.284C86.4133 30.9853 86.46 30.7147 86.46 30.472H86.74V34H75.26V33.72ZM101.563 15.24C103.019 15.24 104.326 15.5013 105.483 16.024C106.641 16.528 107.621 17.2187 108.423 18.096C109.245 18.9547 109.87 19.9627 110.299 21.12C110.747 22.2587 110.971 23.4533 110.971 24.704C110.971 26.104 110.71 27.392 110.187 28.568C109.683 29.744 108.983 30.752 108.087 31.592C107.191 32.432 106.146 33.0947 104.951 33.58C103.775 34.0467 102.515 34.28 101.171 34.28C99.7339 34.28 98.4365 34.0187 97.2792 33.496C96.1405 32.9733 95.1699 32.2827 94.3672 31.424C93.5832 30.5653 92.9765 29.576 92.5472 28.456C92.1179 27.336 91.9032 26.1693 91.9032 24.956C91.9032 23.7613 92.1179 22.5853 92.5472 21.428C92.9765 20.252 93.6019 19.2067 94.4232 18.292C95.2632 17.3773 96.2805 16.64 97.4752 16.08C98.6699 15.52 100.033 15.24 101.563 15.24ZM101.535 33.3C102.786 33.244 103.878 32.964 104.811 32.46C105.763 31.9373 106.557 31.284 107.191 30.5C107.826 29.6973 108.293 28.82 108.591 27.868C108.909 26.916 109.067 25.9733 109.067 25.04C109.067 24.0133 108.881 22.9773 108.507 21.932C108.134 20.8867 107.602 19.944 106.911 19.104C106.221 18.2453 105.39 17.5547 104.419 17.032C103.467 16.4907 102.394 16.22 101.199 16.22C100.042 16.22 99.0059 16.4813 98.0912 17.004C97.1765 17.508 96.3925 18.1613 95.7392 18.964C95.1045 19.7667 94.6192 20.6627 94.2832 21.652C93.9472 22.6413 93.7792 23.612 93.7792 24.564C93.7792 25.5907 93.9752 26.6267 94.3672 27.672C94.7592 28.6987 95.3005 29.632 95.9912 30.472C96.6819 31.312 97.4939 31.9933 98.4272 32.516C99.3792 33.0387 100.415 33.3 101.535 33.3ZM118.428 15.52H122.404V15.8H122.264C122.115 15.8 121.984 15.856 121.872 15.968C121.76 16.0613 121.657 16.1827 121.564 16.332C121.489 16.4813 121.433 16.64 121.396 16.808C121.359 16.976 121.34 17.1253 121.34 17.256V28.316C121.34 29.044 121.415 29.716 121.564 30.332C121.713 30.948 121.965 31.48 122.32 31.928C122.675 32.376 123.141 32.7307 123.72 32.992C124.299 33.2347 125.008 33.356 125.848 33.356C126.781 33.356 127.528 33.2067 128.088 32.908C128.648 32.6093 129.077 32.2267 129.376 31.76C129.675 31.2747 129.871 30.7333 129.964 30.136C130.057 29.5387 130.104 28.9507 130.104 28.372V17.256C130.104 17.1253 130.085 16.976 130.048 16.808C130.011 16.64 129.945 16.4813 129.852 16.332C129.777 16.1827 129.684 16.0613 129.572 15.968C129.46 15.856 129.339 15.8 129.208 15.8H129.068V15.52H132.12V15.8H131.98C131.831 15.8 131.7 15.856 131.588 15.968C131.495 16.0613 131.401 16.1827 131.308 16.332C131.233 16.4813 131.177 16.64 131.14 16.808C131.103 16.976 131.084 17.1253 131.084 17.256V28.288C131.084 29.5013 130.935 30.5 130.636 31.284C130.337 32.0493 129.927 32.656 129.404 33.104C128.881 33.552 128.265 33.86 127.556 34.028C126.865 34.196 126.128 34.28 125.344 34.28C124.504 34.28 123.72 34.1867 122.992 34C122.283 33.832 121.667 33.524 121.144 33.076C120.621 32.628 120.211 32.0213 119.912 31.256C119.613 30.472 119.464 29.492 119.464 28.316V17.256C119.464 17.1253 119.445 16.976 119.408 16.808C119.371 16.64 119.305 16.4813 119.212 16.332C119.137 16.1827 119.044 16.0613 118.932 15.968C118.82 15.856 118.699 15.8 118.568 15.8H118.428V15.52ZM142.076 16.5C142.076 16.612 142.104 16.752 142.16 16.92L147.088 30.192L152.016 16.78C152.034 16.7427 152.053 16.6867 152.072 16.612C152.09 16.5373 152.1 16.4813 152.1 16.444C152.1 16.22 152.006 16.0613 151.82 15.968C151.652 15.856 151.493 15.8 151.344 15.8V15.52H154.396V15.8C154.116 15.8 153.854 15.8747 153.612 16.024C153.388 16.1733 153.21 16.4253 153.08 16.78L146.668 34.336L140.116 16.864C140.004 16.584 139.836 16.3413 139.612 16.136C139.406 15.9307 139.145 15.8187 138.828 15.8V15.52H142.804V15.8C142.636 15.8 142.468 15.8653 142.3 15.996C142.15 16.108 142.076 16.276 142.076 16.5ZM165.076 33.72H165.216V34H161.268V33.72H161.408C161.538 33.72 161.66 33.664 161.772 33.552C161.884 33.44 161.977 33.3093 162.052 33.16C162.145 33.0107 162.21 32.852 162.248 32.684C162.285 32.4973 162.304 32.3293 162.304 32.18V17.256C162.304 17.1253 162.285 16.976 162.248 16.808C162.21 16.64 162.145 16.4813 162.052 16.332C161.977 16.1827 161.884 16.0613 161.772 15.968C161.66 15.856 161.538 15.8 161.408 15.8H161.268V15.52H166.14C168.006 15.52 169.444 15.884 170.452 16.612C171.478 17.34 171.992 18.4133 171.992 19.832C171.992 20.5413 171.87 21.1667 171.628 21.708C171.404 22.2307 171.096 22.688 170.704 23.08C170.312 23.4533 169.845 23.7613 169.304 24.004C168.781 24.228 168.221 24.396 167.624 24.508L169.64 27.588C170.125 28.3347 170.62 29.072 171.124 29.8C171.628 30.5093 172.122 31.2467 172.608 32.012C172.738 32.1987 172.878 32.3947 173.028 32.6C173.196 32.8053 173.364 32.992 173.532 33.16C173.718 33.328 173.905 33.468 174.092 33.58C174.297 33.6733 174.502 33.72 174.708 33.72V34H173.504C172.757 34 172.141 33.8227 171.656 33.468C171.189 33.0947 170.797 32.6653 170.48 32.18C169.64 30.948 168.8 29.6973 167.96 28.428C167.138 27.1587 166.317 25.908 165.496 24.676C165.29 24.6573 165.066 24.6387 164.824 24.62C164.6 24.5827 164.385 24.5453 164.18 24.508V32.18C164.18 32.3293 164.198 32.4973 164.236 32.684C164.273 32.852 164.329 33.0107 164.404 33.16C164.497 33.3093 164.59 33.44 164.684 33.552C164.796 33.664 164.926 33.72 165.076 33.72ZM164.18 16.472V23.584H164.32C164.469 23.6027 164.702 23.6213 165.02 23.64C165.356 23.64 165.766 23.64 166.252 23.64C166.644 23.64 167.054 23.584 167.484 23.472C167.932 23.3413 168.342 23.136 168.716 22.856C169.108 22.5573 169.425 22.1747 169.668 21.708C169.929 21.2413 170.06 20.6533 170.06 19.944C170.06 19.2347 169.92 18.656 169.64 18.208C169.378 17.76 169.005 17.4053 168.52 17.144C168.053 16.8827 167.484 16.7053 166.812 16.612C166.14 16.5187 165.402 16.472 164.6 16.472H164.18ZM181.389 33.72H181.529C181.678 33.72 181.809 33.6733 181.921 33.58C182.033 33.468 182.126 33.3373 182.201 33.188C182.294 33.0387 182.36 32.88 182.397 32.712C182.453 32.544 182.481 32.3853 182.481 32.236V17.256C182.481 17.1253 182.453 16.976 182.397 16.808C182.36 16.64 182.294 16.4813 182.201 16.332C182.126 16.1827 182.033 16.0613 181.921 15.968C181.809 15.856 181.678 15.8 181.529 15.8H181.389V15.52H192.169V18.124H191.889C191.852 17.6947 191.684 17.3213 191.385 17.004C191.086 16.668 190.62 16.5 189.985 16.5H184.357V23.584H189.005C189.434 23.584 189.789 23.4533 190.069 23.192C190.368 22.9307 190.517 22.6227 190.517 22.268H190.797V25.768H190.517C190.517 25.432 190.377 25.1427 190.097 24.9C189.817 24.6573 189.453 24.536 189.005 24.536H184.357V33.02H190.489C190.844 33.02 191.152 32.936 191.413 32.768C191.674 32.6 191.889 32.404 192.057 32.18C192.244 31.9373 192.374 31.6853 192.449 31.424C192.542 31.144 192.589 30.9107 192.589 30.724H192.869V34H181.389V33.72Z" fill="white"/>
</g>
<defs>
<filter id="filter0_d" x="0" y="0" width="203" height="58" filterUnits="userSpaceOnUse" color-interpolation-filters="sRGB">
<feFlood flood-opacity="0" result="BackgroundImageFix"/>
<feColorMatrix in="SourceAlpha" type="matrix" values="0 0 0 0 0 0 0 0 0 0 0 0 0 0 0 0 0 0 127 0" result="hardAlpha"/>
<feOffset dy="4"/>
<feGaussianBlur stdDeviation="2"/>
<feComposite in2="hardAlpha" operator="out"/>
<feColorMatrix type="matrix" values="0 0 0 0 0 0 0 0 0 0 0 0 0 0 0 0 0 0 0.25 0"/>
<feBlend mode="normal" in2="BackgroundImageFix" result="effect1_dropShadow"/>
<feBlend mode="normal" in="SourceGraphic" in2="effect1_dropShadow" result="shape"/>
</filter>
</defs>
</svg>
